<mxfile host="app.diagrams.net" modified="2024-05-14T03:11:51.605Z" agent="Mozilla/5.0 (Macintosh; Intel Mac OS X 10_15_7) AppleWebKit/537.36 (KHTML, like Gecko) Chrome/124.0.0.0 Safari/537.36" version="24.4.0" etag="8EAKMLdN9Ij7JKvnk1I7" type="github">
  <diagram name="第 1 页" id="G8DG5qnrtjP456psAxCb">
    <mxGraphModel>
      <root>
        <mxCell id="0" />
        <mxCell id="1" parent="0" />
      </root>
    </mxGraphModel>
  </diagram>
</mxfile>
